<svg width="564" height="647" viewBox="0 0 564 647" fill="none" xmlns="http://www.w3.org/2000/svg">
<path d="M547.189 403.729L506.984 392.577L381 351L421.205 362.151L547.189 403.729Z" fill="url(#paint0_linear_1733_945)"/>
<path d="M374 444.5L334 433.5C340.153 427.497 345.896 421.396 351.229 414.301L392.5 424C387.167 431.095 382 436.5 374 444.5Z" fill="url(#paint1_linear_1733_945)"/>
<path d="M392.5 424L351.229 414.301C356.015 407.888 360.527 400.93 364.493 393.698L404.42 404.75C401 411.5 397.286 417.587 392.5 424Z" fill="url(#paint2_linear_1733_945)"/>
<path d="M404.42 404.75L364.493 393.698C368.185 387.013 372.03 379.917 374.902 372.686L414.829 383.737C411.958 391.105 408.112 398.064 404.42 404.75Z" fill="url(#paint3_linear_1733_945)"/>
<path d="M414.829 383.737L374.902 372.686C375.859 370.503 376.68 368.183 377.5 366L417.5 376C416.68 378.32 415.787 381.554 414.829 383.737Z" fill="url(#paint4_linear_1733_945)"/>
<path d="M445.82 572.383L405.615 561.232L333.742 433.334L373.947 444.485L445.82 572.383Z" fill="url(#paint5_linear_1733_945)"/>
<path d="M417.318 375.924L543.302 417.363C523.062 478.214 488.916 532.044 445.82 572.382L373.947 444.485C392.672 426.174 407.818 402.495 417.318 375.924Z" fill="url(#paint6_linear_1733_945)"/>
<path d="M260.996 478.351L221 467.146C224.15 467.976 227.301 468.806 230.451 469.359L270.447 480.565C267.16 480.011 264.01 479.32 260.996 478.351Z" fill="url(#paint7_linear_1733_945)"/>
<path d="M270.447 480.565L230.451 469.359C238.67 470.743 247.162 471.158 255.928 470.466L295.924 481.671C287.158 482.363 278.666 481.948 270.447 480.565Z" fill="url(#paint8_linear_1733_945)"/>
<path d="M295.924 481.671L255.928 470.466C257.983 470.328 259.9 470.051 261.955 469.774C284.556 466.593 305.649 456.217 324.004 441L364 452.205C345.783 467.423 324.552 477.798 301.951 480.98C299.897 481.256 297.979 481.533 295.924 481.671Z" fill="url(#paint9_linear_1733_945)"/>
<path d="M420.686 362L380.4 350.83C380.676 349.726 380.951 348.761 381.227 347.658L421.514 358.828C421.238 359.931 420.962 361.035 420.686 362Z" fill="url(#paint10_linear_1733_945)"/>
<path d="M421.514 358.828L381.227 347.658C383.573 338.556 385.366 329.316 386.47 319.938L426.757 331.109C425.653 340.624 423.997 349.864 421.514 358.828Z" fill="url(#paint11_linear_1733_945)"/>
<path d="M426.757 331.109L386.47 319.938C387.298 313.181 387.574 306.286 387.712 299.252C387.85 232.368 352.392 180.653 303 167L343.286 178.17C392.679 191.823 428.274 243.538 427.998 310.423C427.998 317.456 427.584 324.351 426.757 331.109Z" fill="url(#paint12_linear_1733_945)"/>
<path d="M358.5 12C475.947 26.1803 564.177 140.173 563.902 291.613C563.764 330.023 557.981 367.883 547.379 403.54L420.5 362C425.181 345.479 427.862 328.26 428 310.5C428.138 238.91 387.575 184.536 332.5 176L358.5 12Z" fill="url(#paint13_linear_1733_945)"/>
<path d="M358.526 12.1939L318.321 1.04248C321.763 1.4555 325.067 2.00619 328.372 2.55688L368.577 13.7083C365.272 13.02 361.968 12.607 358.526 12.1939Z" fill="#7AAFFF"/>
<path d="M368.577 13.7081L328.372 2.55664C334.981 3.65802 341.59 5.17242 348.061 6.96216L388.266 18.1136C381.795 16.3239 375.323 14.8095 368.577 13.7081Z" fill="#7AAFFF"/>
<path d="M332.503 176.162L292.298 165.01L318.321 1.04248L358.526 12.1939L332.503 176.162Z" fill="url(#paint14_linear_1733_945)"/>
<path d="M216.019 639.292L175.815 628.14C159.017 623.459 142.907 616.713 127.899 607.902L168.104 619.054C183.112 627.865 199.084 634.611 216.019 639.292Z" fill="#321313"/>
<path d="M365.205 452L437.353 580.311C397.836 614.453 351.849 637.445 302.419 644.328C253.678 651.212 207.966 641.437 169 618.859L241.148 469.76C259.461 479.534 280.527 483.665 302.97 480.636C325.551 477.469 346.754 467.144 365.205 452Z" fill="url(#paint15_linear_1733_945)"/>
<path d="M167.966 619.053L127.762 607.902L199.91 458.803L240.5 470L167.966 619.053Z" fill="url(#paint16_linear_1733_945)"/>
<path d="M308.132 12.3315L267.928 1.18006C270.268 0.904716 272.609 0.629372 274.95 0.491699L315.155 11.6432C312.814 11.7808 310.473 12.0562 308.132 12.3315Z" fill="url(#paint17_linear_1733_945)"/>
<path d="M309 12.5001L268.5 1.00004C279.515 0.0363373 296.892 -0.202118 307.632 0.486244L347.837 11.6377C337.097 10.8117 320.153 11.5364 309 12.5001Z" fill="url(#paint18_linear_1733_945)"/>
<path d="M308.205 175.156L268 164.004L268.413 1L308.618 12.1515L308.205 175.156Z" fill="url(#paint19_linear_1733_945)"/>
<path d="M233.506 211.269L193.163 200.117L113.305 79.103L153.647 90.2545L233.506 211.269Z" fill="url(#paint20_linear_1733_945)"/>
<path d="M153.5 90.5L113 78.9372C114.93 77.0251 116.998 74.9764 119.066 73.2009L159.5 84.5C157.5 86.5 155.43 88.5879 153.5 90.5Z" fill="url(#paint21_linear_1733_945)"/>
<path d="M159.5 84.5L119.066 73.2009C159.043 36.4615 206.603 11.3312 257.747 3L298 14.0628C246.994 22.394 199.616 47.7606 159.5 84.5Z" fill="url(#paint22_linear_1733_945)"/>
<path d="M298.081 13.708L297.806 177.125C274.123 181.806 251.956 193.784 233.368 211.13L153.509 90.1162C194.816 50.0535 244.521 22.519 298.081 13.708Z" fill="url(#paint23_linear_1733_945)"/>
<path d="M145.248 98.9277L224.281 220.63C214.505 231.369 206.106 243.621 198.946 256.976L84.8032 185.524C101.326 153.171 121.703 123.984 145.248 98.9277Z" fill="url(#paint24_linear_1733_945)"/>
<path d="M84.9453 186L45 174.82C47.052 170.817 49.104 166.814 51.2928 162.949L91.238 174.13C89.0493 177.994 86.9973 181.997 84.9453 186Z" fill="url(#paint25_linear_1733_945)"/>
<path d="M91.238 174.13L51.2928 162.949C59.7743 147.49 69.0766 132.997 79.1997 119.194L119.145 130.375C109.022 144.039 99.7196 158.67 91.238 174.13Z" fill="url(#paint26_linear_1733_945)"/>
<path d="M119.282 130.375L79.3365 119.194C87.2709 108.152 95.8892 97.8 105.055 88L145 99.1803C135.971 108.98 127.353 119.332 119.282 130.375Z" fill="url(#paint27_linear_1733_945)"/>
<path d="M198.946 256.976L158.604 245.824L44.5986 174.372L84.8034 185.524L198.946 256.976Z" fill="url(#paint28_linear_1733_945)"/>
<path d="M48.0407 291.118L7.83594 279.967L139.052 303.233L179.257 314.385L48.0407 291.118Z" fill="#226276"/>
<path d="M159 614L118.663 602.835C46.9687 556.518 -0.275074 465.678 0.00120527 354.988C0.00120527 340.514 0.830043 326.178 2.48772 312.118L42.8245 323.284C41.1668 337.482 40.338 351.818 40.338 366.154C40.0617 476.981 87.3055 567.684 159 614Z" fill="url(#paint29_linear_1733_945)"/>
<path d="M42.8245 323.284L2.48772 312.118C3.73098 301.228 5.38865 290.476 7.46075 280L48 291C45.9279 301.476 44.0678 312.394 42.8245 323.284Z" fill="url(#paint30_linear_1733_945)"/>
<path d="M48.041 291.118L179.257 314.385C177.329 324.986 176.366 336.137 176.228 347.151C176.09 399.329 197.845 442.282 231.028 464.998L158.742 613.685C87.4196 567.427 39.7248 476.689 40.0002 366C40.1379 340.531 42.5002 315 48.041 291.118Z" fill="url(#paint31_linear_1733_945)"/>
<path d="M78.0565 198.189L191.924 268.815C187.518 278.865 183.8 289.466 181.047 300.342L50.6567 277.213C57.2657 249.679 66.4908 223.108 78.0565 198.189Z" fill="url(#paint32_linear_1733_945)"/>
<path d="M50.9265 277L11 265.887C11.8204 262.183 12.7776 258.479 13.7347 254.774L53.6612 265.887C52.7041 269.591 51.7469 273.296 50.9265 277Z" fill="url(#paint33_linear_1733_945)"/>
<path d="M53.6612 265.887L13.7347 254.774C18.1102 238.311 23.3061 222.259 29.5959 206.756L69.5224 217.869C63.3694 233.509 58.0367 249.561 53.6612 265.887Z" fill="url(#paint34_linear_1733_945)"/>
<path d="M69.5225 218.006L29.5959 206.756C32.3306 200.034 35.0653 193.585 38.0735 187L78 198.113C74.9918 204.698 72.2571 211.284 69.5225 218.006Z" fill="url(#paint35_linear_1733_945)"/>
<path d="M308.275 12.4213C321.769 10.9069 334.987 10.6316 347.929 11.4576L321.769 175.15C317.225 175.012 312.544 175.15 308 175.563L308.275 12.4213Z" fill="url(#paint36_linear_1733_945)"/>
<defs>
<linearGradient id="paint0_linear_1733_945" x1="464.094" y1="351" x2="464.094" y2="403.729" gradientUnits="userSpaceOnUse">
<stop stop-color="#7AAFFF"/>
<stop offset="1" stop-color="#12054B" stop-opacity="0.5"/>
</linearGradient>
<linearGradient id="paint1_linear_1733_945" x1="334" y1="390" x2="375.5" y2="445" gradientUnits="userSpaceOnUse">
<stop stop-color="#C384C5"/>
<stop offset="1" stop-color="#AD3FAF"/>
</linearGradient>
<linearGradient id="paint2_linear_1733_945" x1="334" y1="390" x2="375.5" y2="445" gradientUnits="userSpaceOnUse">
<stop stop-color="#C384C5"/>
<stop offset="1" stop-color="#AD3FAF"/>
</linearGradient>
<linearGradient id="paint3_linear_1733_945" x1="334" y1="390" x2="375.5" y2="445" gradientUnits="userSpaceOnUse">
<stop stop-color="#C384C5"/>
<stop offset="1" stop-color="#AD3FAF"/>
</linearGradient>
<linearGradient id="paint4_linear_1733_945" x1="334" y1="390" x2="375.5" y2="445" gradientUnits="userSpaceOnUse">
<stop stop-color="#C384C5"/>
<stop offset="1" stop-color="#AD3FAF"/>
</linearGradient>
<linearGradient id="paint5_linear_1733_945" x1="389.781" y1="433.334" x2="389.781" y2="572.383" gradientUnits="userSpaceOnUse">
<stop stop-color="#C646C9"/>
<stop offset="1" stop-color="#666BEB" stop-opacity="0"/>
</linearGradient>
<linearGradient id="paint6_linear_1733_945" x1="384.5" y1="421.5" x2="583" y2="527.5" gradientUnits="userSpaceOnUse">
<stop stop-color="#AE3AB0"/>
<stop offset="1" stop-color="#666BEB" stop-opacity="0"/>
</linearGradient>
<linearGradient id="paint7_linear_1733_945" x1="172" y1="462" x2="378.823" y2="468.05" gradientUnits="userSpaceOnUse">
<stop stop-color="#12054B" stop-opacity="0.5"/>
<stop offset="0.484375" stop-color="#AB4E4E" stop-opacity="0.54"/>
<stop offset="1" stop-color="#FE8B8B"/>
</linearGradient>
<linearGradient id="paint8_linear_1733_945" x1="172" y1="462" x2="378.823" y2="468.05" gradientUnits="userSpaceOnUse">
<stop stop-color="#12054B" stop-opacity="0.5"/>
<stop offset="0.484375" stop-color="#AB4E4E" stop-opacity="0.54"/>
<stop offset="1" stop-color="#FE8B8B"/>
</linearGradient>
<linearGradient id="paint9_linear_1733_945" x1="172" y1="462" x2="378.823" y2="468.05" gradientUnits="userSpaceOnUse">
<stop stop-color="#12054B" stop-opacity="0.5"/>
<stop offset="0.484375" stop-color="#AB4E4E" stop-opacity="0.54"/>
<stop offset="1" stop-color="#FE8B8B"/>
</linearGradient>
<linearGradient id="paint10_linear_1733_945" x1="432.5" y1="257" x2="343.5" y2="276.5" gradientUnits="userSpaceOnUse">
<stop stop-color="#9DC4FF"/>
<stop offset="0.964347" stop-color="#1B4DAE" stop-opacity="0.5"/>
</linearGradient>
<linearGradient id="paint11_linear_1733_945" x1="432.5" y1="257" x2="343.5" y2="276.5" gradientUnits="userSpaceOnUse">
<stop stop-color="#9DC4FF"/>
<stop offset="0.964347" stop-color="#1B4DAE" stop-opacity="0.5"/>
</linearGradient>
<linearGradient id="paint12_linear_1733_945" x1="432.5" y1="257" x2="343.5" y2="276.5" gradientUnits="userSpaceOnUse">
<stop stop-color="#9DC4FF"/>
<stop offset="0.964347" stop-color="#1B4DAE" stop-opacity="0.5"/>
</linearGradient>
<linearGradient id="paint13_linear_1733_945" x1="370.5" y1="274" x2="611.5" y2="138.5" gradientUnits="userSpaceOnUse">
<stop stop-color="#7AAFFF"/>
<stop offset="1" stop-color="#12054B" stop-opacity="0.5"/>
</linearGradient>
<linearGradient id="paint14_linear_1733_945" x1="325.412" y1="1.04248" x2="325.412" y2="176.162" gradientUnits="userSpaceOnUse">
<stop stop-color="#6A9AE1"/>
<stop offset="1" stop-color="#47648F" stop-opacity="0.5"/>
</linearGradient>
<linearGradient id="paint15_linear_1733_945" x1="300.896" y1="480.305" x2="303.176" y2="646.497" gradientUnits="userSpaceOnUse">
<stop stop-color="#BF5454"/>
<stop offset="0.484375" stop-color="#AB4E4E" stop-opacity="0.54"/>
<stop offset="1" stop-color="#4F2121" stop-opacity="0.5"/>
</linearGradient>
<linearGradient id="paint16_linear_1733_945" x1="238" y1="464" x2="156.386" y2="608.134" gradientUnits="userSpaceOnUse">
<stop stop-color="#BF5454"/>
<stop offset="1" stop-color="#4F2121" stop-opacity="0.33"/>
</linearGradient>
<linearGradient id="paint17_linear_1733_945" x1="283.642" y1="0.744945" x2="413.39" y2="94.6037" gradientUnits="userSpaceOnUse">
<stop stop-color="#CFC0C0"/>
<stop offset="1" stop-color="#666BEB" stop-opacity="0"/>
<stop offset="1" stop-color="#67681E" stop-opacity="0.5"/>
</linearGradient>
<linearGradient id="paint18_linear_1733_945" x1="299.236" y1="0.254849" x2="435.96" y2="151.857" gradientUnits="userSpaceOnUse">
<stop stop-color="#CFC0C0"/>
<stop offset="1" stop-color="#0A0505"/>
</linearGradient>
<linearGradient id="paint19_linear_1733_945" x1="313.5" y1="-16.5" x2="288.309" y2="175.156" gradientUnits="userSpaceOnUse">
<stop stop-color="#B09F9F"/>
<stop offset="1" stop-color="#4D3535"/>
</linearGradient>
<linearGradient id="paint20_linear_1733_945" x1="103" y1="72.5" x2="228" y2="202" gradientUnits="userSpaceOnUse">
<stop stop-color="#FFBA7A"/>
<stop offset="1" stop-color="#21160D" stop-opacity="0.5"/>
</linearGradient>
<linearGradient id="paint21_linear_1733_945" x1="91.5" y1="47" x2="265" y2="187.5" gradientUnits="userSpaceOnUse">
<stop stop-color="#FFCFA3"/>
<stop offset="1" stop-color="#9A6C42" stop-opacity="0.5"/>
<stop offset="1" stop-color="#9A6C42" stop-opacity="0.5"/>
</linearGradient>
<linearGradient id="paint22_linear_1733_945" x1="91.5" y1="47" x2="265" y2="187.5" gradientUnits="userSpaceOnUse">
<stop stop-color="#FFCFA3"/>
<stop offset="1" stop-color="#9A6C42" stop-opacity="0.5"/>
<stop offset="1" stop-color="#9A6C42" stop-opacity="0.5"/>
</linearGradient>
<linearGradient id="paint23_linear_1733_945" x1="225.795" y1="13.708" x2="225.795" y2="211.13" gradientUnits="userSpaceOnUse">
<stop stop-color="#FFBA7A"/>
<stop offset="0.0001" stop-color="#FFBA7A"/>
<stop offset="1" stop-color="#6A4A2D" stop-opacity="0.5"/>
</linearGradient>
<linearGradient id="paint24_linear_1733_945" x1="75.5" y1="180" x2="225.5" y2="226" gradientUnits="userSpaceOnUse">
<stop stop-color="#ABCC4D"/>
<stop offset="1" stop-color="#364019" stop-opacity="0.5"/>
</linearGradient>
<linearGradient id="paint25_linear_1733_945" x1="63" y1="181" x2="164.5" y2="109.5" gradientUnits="userSpaceOnUse">
<stop stop-color="#D5FF5C"/>
<stop offset="1" stop-color="#9DBC45" stop-opacity="0.5"/>
</linearGradient>
<linearGradient id="paint26_linear_1733_945" x1="63" y1="181" x2="164.5" y2="109.5" gradientUnits="userSpaceOnUse">
<stop stop-color="#D5FF5C"/>
<stop offset="1" stop-color="#9DBC45" stop-opacity="0.5"/>
</linearGradient>
<linearGradient id="paint27_linear_1733_945" x1="63" y1="181" x2="164.5" y2="109.5" gradientUnits="userSpaceOnUse">
<stop stop-color="#D5FF5C"/>
<stop offset="1" stop-color="#9DBC45" stop-opacity="0.5"/>
</linearGradient>
<linearGradient id="paint28_linear_1733_945" x1="33.5" y1="139" x2="200.5" y2="253.5" gradientUnits="userSpaceOnUse">
<stop stop-color="#ABCC4D"/>
<stop offset="0.993687" stop-color="#364019" stop-opacity="0.5"/>
</linearGradient>
<linearGradient id="paint29_linear_1733_945" x1="79.5" y1="280" x2="79.5" y2="614" gradientUnits="userSpaceOnUse">
<stop stop-color="#41A3C1"/>
<stop offset="1" stop-color="#170662" stop-opacity="0.5"/>
</linearGradient>
<linearGradient id="paint30_linear_1733_945" x1="79.5" y1="280" x2="79.5" y2="614" gradientUnits="userSpaceOnUse">
<stop stop-color="#41A3C1"/>
<stop offset="1" stop-color="#170662" stop-opacity="0.5"/>
</linearGradient>
<linearGradient id="paint31_linear_1733_945" x1="135.816" y1="291.118" x2="135.816" y2="613.685" gradientUnits="userSpaceOnUse">
<stop stop-color="#32859F"/>
<stop offset="1" stop-color="#12054B" stop-opacity="0.5"/>
</linearGradient>
<linearGradient id="paint32_linear_1733_945" x1="65" y1="237.5" x2="185" y2="289" gradientUnits="userSpaceOnUse">
<stop stop-color="#1BA93B"/>
<stop offset="1" stop-color="#115320" stop-opacity="0.5"/>
</linearGradient>
<linearGradient id="paint33_linear_1733_945" x1="63" y1="200" x2="37" y2="290.5" gradientUnits="userSpaceOnUse">
<stop offset="0.0738763" stop-color="#3AFF66"/>
<stop offset="1" stop-color="#29E052" stop-opacity="0.5"/>
</linearGradient>
<linearGradient id="paint34_linear_1733_945" x1="63" y1="200" x2="37" y2="290.5" gradientUnits="userSpaceOnUse">
<stop offset="0.0738763" stop-color="#3AFF66"/>
<stop offset="1" stop-color="#29E052" stop-opacity="0.5"/>
</linearGradient>
<linearGradient id="paint35_linear_1733_945" x1="63" y1="200" x2="37" y2="290.5" gradientUnits="userSpaceOnUse">
<stop offset="0.0738763" stop-color="#3AFF66"/>
<stop offset="1" stop-color="#29E052" stop-opacity="0.5"/>
</linearGradient>
<linearGradient id="paint36_linear_1733_945" x1="327.965" y1="11" x2="327.965" y2="175.563" gradientUnits="userSpaceOnUse">
<stop stop-color="#CFC0C0"/>
<stop offset="1" stop-color="#594040"/>
</linearGradient>
</defs>
</svg>