<svg width="794" height="1495" viewBox="0 0 794 1495" fill="none" xmlns="http://www.w3.org/2000/svg">
    <path d="M207.662 488.222L207.799 488.304C207.547 487.587 207.123 486.939 206.581 486.343L194.814 465.884L149.408 465.886L167.15 496.689L152.94 521.173L152.243 522.47C150.724 524.681 148.163 526.148 145.269 526.148C142.49 526.148 139.837 524.681 138.398 522.47L137.696 521.163L127.908 504.559C125.566 500.45 120.331 499.032 116.233 501.389C113.478 502.953 111.947 505.891 111.947 508.846C111.947 510.295 112.253 511.785 113.242 513.139L132.289 546.252L133.723 548.908C133.971 549.773 134.324 550.724 134.324 551.75C134.324 552.777 133.971 553.727 133.723 554.674L132.289 557.25L98.9352 615.172L97.6562 617.34C95.9702 619.354 93.5902 620.682 90.8752 620.682C88.1602 620.682 85.5982 619.332 84.0892 617.276C84.0302 617.212 83.9862 617.145 83.9292 617.081L95.8582 637.284L120.639 637.602C115.93 637.602 111.948 633.752 111.948 629.02C111.948 627.34 112.581 625.788 113.296 624.469L113.415 624.151L137.697 582.331L138.399 581.028C139.838 578.903 142.491 577.448 145.27 577.448C148.164 577.448 150.725 578.903 152.244 581.028L152.95 582.341L162.752 598.978C164.071 601.367 166.427 602.824 168.972 603.16L149.252 637.279L194.815 637.334L244.207 551.771L207.662 488.222ZM176.871 589.483L158.347 557.251L156.846 554.675C156.676 553.728 156.311 552.779 156.311 551.751C156.311 550.741 156.676 549.774 156.846 548.909L158.347 546.247L177.028 513.831L198.772 551.585L176.871 589.483Z" stroke="url(#paint0_linear)" stroke-miterlimit="10"></path>
    <path opacity="0.5" d="M83.9281 617.081L82.8511 615.253C83.1451 615.911 83.4761 616.52 83.9281 617.081Z" stroke="white" stroke-width="0.6" stroke-miterlimit="10"></path>
    <path d="M322.485 894.261C317.776 894.261 313.791 890.415 313.791 885.679C313.791 883.999 314.422 882.45 315.143 881.132L315.262 880.812L339.543 838.99L340.242 837.687C341.685 835.564 344.336 834.107 347.113 834.107C350.008 834.107 352.57 835.564 354.088 837.687L354.797 839.001L364.596 855.638C366.858 859.728 372.153 861.117 376.239 858.74C379.009 857.193 380.477 854.283 380.477 851.277C380.477 849.863 380.239 848.427 379.252 847.072L360.191 813.912L358.691 811.334C358.525 810.391 358.155 809.438 358.155 808.412C358.155 807.404 358.525 806.435 358.691 805.57L360.191 802.906L393.558 745.008L394.822 742.877C396.57 740.863 398.834 739.545 401.592 739.545C404.328 739.545 406.905 740.891 408.377 742.947C408.943 743.556 409.383 744.224 409.647 744.963" stroke="url(#paint1_linear)" stroke-miterlimit="10"></path>
    <path d="M372.05 722.601C376.579 722.601 380.484 726.341 380.484 731.095C380.484 732.784 379.916 734.437 379.14 735.755L379.072 735.993L354.785 777.833L354.088 779.13C352.57 781.339 350.008 782.806 347.113 782.806C344.336 782.806 341.685 781.339 340.242 779.13L339.543 777.821L329.758 761.217C327.412 757.11 322.179 755.69 318.074 758.049C315.322 759.613 313.791 762.551 313.791 765.504C313.791 766.955 314.1 768.443 315.089 769.799L334.132 802.91L335.57 805.568C335.818 806.433 336.17 807.384 336.17 808.41C336.17 809.436 335.818 810.389 335.57 811.332L334.132 813.91L300.782 871.832L299.502 873.998C297.816 876.014 295.436 877.342 292.723 877.342C290.003 877.342 287.44 875.992 285.936 873.936C285.387 873.325 285.029 872.645 284.698 871.911" stroke="url(#paint2_linear)" stroke-miterlimit="10"></path>
    <path d="M417.935 466.518C413.222 466.518 409.242 462.67 409.242 457.934C409.242 456.256 409.873 454.704 410.594 453.387L410.708 453.067L434.992 411.248L435.692 409.945C437.132 407.819 439.782 406.363 442.566 406.363C445.459 406.363 448.021 407.819 449.537 409.945L450.242 411.257L460.047 427.892C462.31 431.986 467.604 433.372 471.688 430.996C474.456 429.451 475.929 426.539 475.929 423.533C475.929 422.119 475.686 420.685 474.701 419.328L455.64 386.171L454.14 383.591C453.974 382.646 453.607 381.695 453.607 380.669C453.607 379.661 453.974 378.692 454.14 377.827L455.64 375.165L489.009 317.263L490.271 315.134C492.021 313.118 494.281 311.804 497.041 311.804C499.777 311.804 502.352 313.146 503.826 315.204C504.39 315.811 504.835 316.483 505.094 317.22" stroke="#5181FD" stroke-miterlimit="10"></path>
    <path d="M466.933 294.486C471.457 294.486 475.933 298.597 475.933 303.353C475.933 305.042 475.365 306.693 474.591 308.011L474.521 308.251L450.234 350.087L449.537 351.384C448.021 353.595 445.459 355.062 442.566 355.062C439.782 355.062 437.132 353.595 435.692 351.384L434.992 350.077L425.204 333.473C422.861 329.366 417.628 327.948 413.527 330.307C410.773 331.868 409.242 334.807 409.242 337.76C409.242 339.211 409.547 340.699 410.539 342.055L429.581 375.168L431.018 377.824C431.268 378.689 431.616 379.64 431.616 380.666C431.616 381.692 431.268 382.643 431.018 383.588L429.581 386.168L396.228 444.087L394.951 446.255C393.265 448.267 390.884 449.597 388.17 449.597C385.457 449.597 382.891 448.247 381.38 446.191C380.837 445.582 380.477 444.898 380.145 444.168" stroke="#5181FD" stroke-miterlimit="10"></path>
    <path opacity="0.5" d="M343.224 551.638L392.732 637.333L343.224 723.034H244.336L194.814 637.333L244.336 551.638H343.224Z" stroke="white" stroke-width="0.6" stroke-miterlimit="10"></path>
    <path opacity="0.5" d="M169.084 603.224L149.408 637.284H50.52" stroke="white" stroke-width="0.6" stroke-miterlimit="10"></path>
    <path d="M177.089 513.798L198.921 551.581L176.984 589.546" stroke="#17E2CF" stroke-miterlimit="10"></path>
    <path opacity="0.5" d="M343.224 380.189L392.732 465.884L343.224 551.585H244.336L194.814 465.884L244.336 380.189H343.224Z" stroke="white" stroke-width="0.6" stroke-miterlimit="10"></path>
    <path opacity="0.5" d="M95.886 637.337H194.773L244.283 723.032L194.773 808.733H95.886L46.365 723.032" stroke="white" stroke-width="0.6" stroke-miterlimit="10"></path>
    <path opacity="0.5" d="M492.138 637.337H591.027L640.539 723.032L591.027 808.733H492.138L442.617 723.032" stroke="white" stroke-width="0.6" stroke-miterlimit="10"></path>
    <path opacity="0.5" d="M347.441 1151.47H446.332L495.843 1237.17L446.332 1322.87" stroke="white" stroke-opacity="0.3" stroke-width="0.6" stroke-miterlimit="10"></path>
    <path d="M424.752 428.88L446.131 465.884L424.476 503.366" stroke="#5181FD" stroke-miterlimit="10"></path>
    <path d="M414.709 520.272L396.619 551.585H297.732L248.212 465.884L297.732 380.189H396.619L414.851 411.75" stroke="#5181FD" stroke-miterlimit="10"></path>
    <path d="M244.336 723.034H343.224L364.744 760.284" stroke="white" stroke-width="0.6" stroke-miterlimit="10"></path>
    <path d="M365.121 856.522L343.224 894.431H244.336L220.445 853.083" stroke="white" stroke-width="0.6" stroke-miterlimit="10"></path>
    <path d="M374.867 777.808L392.732 808.731L374.929 839.55" stroke="white" stroke-width="0.6" stroke-miterlimit="10"></path>
    <path d="M396.619 723.034L446.131 808.731L396.619 894.431H297.729L248.211 808.731L297.729 723.034H396.619Z" stroke="url(#paint3_linear)" stroke-miterlimit="10"></path>
    <path d="M374.929 839.55L393.183 808.733H492.068L541.578 894.427L492.068 980.13H393.183L343.662 894.427L365.121 856.522" stroke="#5181FD" stroke-miterlimit="10"></path>
    <path d="M545.289 808.679L594.8 894.374L545.289 980.075H446.402L396.882 894.374L446.402 808.679H545.289Z" stroke="white" stroke-width="0.6" stroke-miterlimit="10"></path>
    <path d="M594.538 894.378L644.046 980.071L594.538 1065.77H495.652L446.131 980.071L495.652 894.378H594.538Z" stroke="white" stroke-width="0.6" stroke-miterlimit="10"></path>
    <path d="M594.538 1065.77L644.046 1151.47L594.538 1237.17H495.652L446.131 1151.47L495.652 1065.77H594.538Z" stroke="url(#paint4_linear)" stroke-opacity="0.3" stroke-miterlimit="10"></path>
    <path opacity="0.5" d="M413.078 1093.8L396.882 1065.77L446.402 980.075H545.289L594.8 1065.77L545.289 1151.47H446.402L429.113 1121.55" stroke="white" stroke-opacity="0.5" stroke-width="0.6" stroke-miterlimit="10"></path>
    <path d="M504.951 316.867L541.578 380.185L492.068 465.886H393.183L343.662 380.185L393.183 294.49H466.933" stroke="#5181FD" stroke-miterlimit="10"></path>
    <path d="M414.584 349.092L396.619 380.189H297.732L248.212 294.486" stroke="#17E2CF" stroke-miterlimit="10"></path>
    <path d="M297.732 208.791H396.619L446.131 294.486L424.329 332.225" stroke="white" stroke-opacity="0.5" stroke-width="0.6" stroke-miterlimit="10"></path>
    <path d="M396.69 380.189L347.172 294.486L396.69 208.791H495.578L545.089 294.486" stroke="#17E2CF" stroke-miterlimit="10"></path>
    <path d="M467.898 294.49H446.402L396.882 208.789L446.402 123.096H545.289L594.8 208.789L545.289 294.49" stroke="white" stroke-opacity="0.5" stroke-width="0.6" stroke-miterlimit="10"></path>
    <path d="M492.068 808.733H393.183L375.203 777.618" stroke="#5181FD" stroke-miterlimit="10"></path>
    <path d="M365.08 760.099L343.662 723.032L393.183 637.337H492.068" stroke="#17E2CF" stroke-miterlimit="10"></path>
    <path d="M545.289 637.034L594.8 722.727L545.289 808.431H446.402L396.882 722.727L446.402 637.034H545.289Z" stroke="#17E2CF" stroke-miterlimit="10"></path>
    <path d="M446.332 637.337H347.441L297.923 551.636L347.441 465.94H446.332L495.843 551.636" stroke="#17E2CF" stroke-miterlimit="10"></path>
    <path d="M492.068 465.94L541.578 551.636L492.068 637.337H393.183L343.662 551.636L393.183 465.94H492.068Z" stroke="#17E2CF" stroke-miterlimit="10"></path>
    <path d="M640.475 380.242L689.985 465.936L640.475 551.638H541.588L492.068 465.936L541.588 380.242H640.475Z" stroke="#5181FD" stroke-miterlimit="10"></path>
    <path opacity="0.5" d="M640.475 208.789L689.985 294.484L640.475 380.185H541.588L492.068 294.484L541.588 208.789H640.475Z" stroke="white" stroke-width="0.6" stroke-miterlimit="10"></path>
    <path opacity="0.5" d="M788.945 294.809L838.456 380.504L788.945 466.204H690.058L640.539 380.504L690.058 294.809H788.945Z" stroke="white" stroke-width="0.6" stroke-miterlimit="10"></path>
    <path opacity="0.5" d="M743.015 294.809L792.526 380.504L743.015 466.204H644.13L594.611 380.504L644.13 294.809H743.015Z" stroke="white" stroke-width="0.6" stroke-miterlimit="10"></path>
    <path opacity="0.5" d="M788.945 123.143L838.456 208.84L788.945 294.539H690.058L640.539 208.84L690.058 123.143H788.945Z" stroke="white" stroke-width="0.6" stroke-miterlimit="10"></path>
    <path opacity="0.5" d="M693.496 37.448L743.006 123.144L693.496 208.844H594.609L545.089 123.144L594.609 37.448H693.496Z" stroke="white" stroke-opacity="0.5" stroke-width="0.6" stroke-miterlimit="10"></path>
    <path opacity="0.5" d="M693.496 723.034L743.007 808.731L693.496 894.431H594.611L545.089 808.731L594.611 723.034H693.496Z" stroke="white" stroke-width="0.6" stroke-miterlimit="10"></path>
    <path opacity="0.5" d="M693.496 894.431L743.007 980.126L693.496 1065.83H594.611L545.089 980.126L594.611 894.431H693.496Z" stroke="white" stroke-opacity="0.5" stroke-width="0.6" stroke-miterlimit="10"></path>
    <path opacity="0.5" d="M841.974 808.733L891.484 894.427L841.974 980.13H743.089L693.568 894.427L743.089 808.733H841.974Z" stroke="white" stroke-width="0.6" stroke-miterlimit="10"></path>
    <path opacity="0.5" d="M940.933 466.206L990.443 551.899L940.933 637.602H842.046L792.526 551.899L842.046 466.206H940.933Z" stroke="white" stroke-width="0.6" stroke-miterlimit="10"></path>
    <path opacity="0.5" d="M887.757 637.602L937.265 723.296L887.757 808.997H788.87L739.351 723.296L788.87 637.602H887.757Z" stroke="white" stroke-width="0.6" stroke-miterlimit="10"></path>
    <path opacity="0.5" d="M940.933 294.809L990.443 380.504L940.933 466.204H842.046L792.526 380.504L842.046 294.809H940.933Z" stroke="white" stroke-width="0.6" stroke-miterlimit="10"></path>
    <path opacity="0.5" d="M841.974 980.075L891.484 1065.77L841.974 1151.47H743.089L693.568 1065.77L743.089 980.075H841.974Z" stroke="white" stroke-opacity="0.3" stroke-width="0.6" stroke-miterlimit="10"></path>
    <path opacity="0.5" d="M743.016 1151.47L792.526 1237.17L743.016 1322.87H644.131L594.61 1237.17L644.131 1151.47H743.016Z" stroke="white" stroke-opacity="0.3" stroke-width="0.6" stroke-miterlimit="10"></path>
    <path opacity="0.5" d="M545.364 1494.26L495.842 1408.56" stroke="url(#paint6_linear)" stroke-opacity="0.3" stroke-miterlimit="10"></path>
    <path opacity="0.5" d="M545.364 1322.87H644.249L693.758 1408.56L644.249 1494.26" stroke="white" stroke-opacity="0.3" stroke-width="0.6" stroke-miterlimit="10"></path>
    <path opacity="0.5" d="M841.974 637.601L891.484 723.296L841.974 808.997H743.089L693.568 723.296L743.089 637.601H841.974Z" stroke="white" stroke-width="0.6" stroke-miterlimit="10"></path>
    <path opacity="0.5" d="M788.945 637.284L838.456 722.977L788.945 808.679H690.058L640.539 722.977L690.058 637.284H788.945Z" stroke="white" stroke-width="0.6" stroke-miterlimit="10"></path>
    <path opacity="0.5" d="M788.796 466.192L838.308 551.886L788.796 637.589H689.914L640.394 551.886L689.914 466.192H788.796Z" stroke="white" stroke-width="0.6" stroke-miterlimit="10"></path>
    <path opacity="0.5" d="M743.015 466.052L792.526 551.745L743.015 637.446H644.13L594.611 551.745L644.13 466.052H743.015Z" stroke="white" stroke-width="0.6" stroke-miterlimit="10"></path>
    <path d="M644.248 465.974L693.757 551.669L644.248 637.37H545.363L495.838 551.669L545.363 465.974H644.248Z" stroke="#5181FD" stroke-miterlimit="10"></path>
    <path d="M194.773 465.94L244.283 551.636L194.773 637.337H95.886L46.365 551.636L95.886 465.94H194.773Z" stroke="url(#paint7_linear)" stroke-miterlimit="10"></path>
    <path d="M176.984 589.546L198.771 551.585H297.661L347.17 637.278L297.661 722.981H198.771L149.251 637.278L169.084 603.224" stroke="#17E2CF" stroke-miterlimit="10"></path>
    <path class="filled" d="M297.661 551.585L347.17 637.278L393.183 637.337L343.662 551.636L393.183 465.94H347.441L297.661 551.585Z" fill="#17E2CF"></path>
    <path class="filled" d="M194.773 465.94L248.212 465.884L297.661 551.585L244.206 551.77L194.773 465.94Z" fill="url(#paint8_linear)"></path>
    <path class="filled" opacity="0.5" d="M149.251 637.503L194.773 637.337L244.336 723.034L198.683 723.335L149.251 637.503Z" fill="url(#paint9_linear)"></path>
    <path class="filled" d="M594.611 380.504L644.248 465.974L689.65 466.518L640.539 380.504L690.058 294.539L644.13 294.809L594.611 380.504Z" fill="url(#paint10_linear)"></path>
    <path class="filled" opacity="0.5" d="M689.877 637.602L640.539 722.977L693.568 723.296L743.015 637.446L689.877 637.602Z" fill="#5181FD"></path>
    <defs>
        <linearGradient id="paint0_linear" x1="83.4979" y1="551.743" x2="244.783" y2="551.743" gradientUnits="userSpaceOnUse">
            <stop stop-color="#17E2CF"></stop>
            <stop offset="1" stop-color="#5181FD"></stop>
        </linearGradient>
        <linearGradient id="paint1_linear" x1="313.291" y1="816.902" x2="410.117" y2="816.902" gradientUnits="userSpaceOnUse">
            <stop stop-color="#17E2CF"></stop>
            <stop offset="1" stop-color="#5181FD"></stop>
        </linearGradient>
        <linearGradient id="paint2_linear" x1="284.241" y1="799.972" x2="380.984" y2="799.972" gradientUnits="userSpaceOnUse">
            <stop stop-color="#17E2CF"></stop>
            <stop offset="1" stop-color="#5181FD"></stop>
        </linearGradient>
        <linearGradient id="paint3_linear" x1="247.633" y1="808.732" x2="446.709" y2="808.732" gradientUnits="userSpaceOnUse">
            <stop stop-color="#17E2CF"></stop>
            <stop offset="1" stop-color="#5181FD"></stop>
        </linearGradient>
        <linearGradient id="paint4_linear" x1="445.554" y1="1151.47" x2="644.624" y2="1151.47" gradientUnits="userSpaceOnUse">
            <stop stop-color="#17E2CF"></stop>
            <stop offset="1" stop-color="#5181FD"></stop>
        </linearGradient>
        <linearGradient id="paint5_linear" x1="396.306" y1="37.3959" x2="595.379" y2="37.3959" gradientUnits="userSpaceOnUse">
            <stop stop-color="#17E2CF"></stop>
            <stop offset="1" stop-color="#5181FD"></stop>
        </linearGradient>
        <linearGradient id="paint6_linear" x1="495.409" y1="1451.41" x2="545.797" y2="1451.41" gradientUnits="userSpaceOnUse">
            <stop stop-color="#17E2CF"></stop>
            <stop offset="1" stop-color="#5181FD"></stop>
        </linearGradient>
        <linearGradient id="paint7_linear" x1="45.7872" y1="551.639" x2="244.86" y2="551.639" gradientUnits="userSpaceOnUse">
            <stop stop-color="#17E2CF"></stop>
            <stop offset="1" stop-color="#5181FD"></stop>
        </linearGradient>
        <linearGradient id="paint8_linear" x1="220.017" y1="464.863" x2="276.017" y2="558.863" gradientUnits="userSpaceOnUse">
            <stop stop-color="#5181FD"></stop>
            <stop offset="1" stop-color="#17E2CF"></stop>
        </linearGradient>
        <linearGradient id="paint9_linear" x1="223.604" y1="728.062" x2="177.604" y2="646.062" gradientUnits="userSpaceOnUse">
            <stop stop-color="#5181FD"></stop>
            <stop offset="1" stop-color="#17E2CF"></stop>
        </linearGradient>
        <linearGradient id="paint10_linear" x1="642.334" y1="298.299" x2="642.334" y2="463.09" gradientUnits="userSpaceOnUse">
            <stop stop-color="#5181FD"></stop>
            <stop offset="1" stop-color="#17E2CF"></stop>
        </linearGradient>
    </defs>
</svg>