<svg width="399" height="1030"  viewBox="0 0 399 1030" fill="none" xmlns="http://www.w3.org/2000/svg">
    <g opacity="1">
        <path
            d="M-48.093 686.642L1.41602 772.335L-48.093 858.038H-146.978L-196.5 772.335L-146.978 686.642H-48.093Z"
            stroke="url(#paint0_linear)" stroke-miterlimit="10" />
        <path
            d="M68.6919 374.939L50.877 344.111L100.401 258.417H199.288L248.795 344.111L199.288 429.812H100.401L84.7141 402.667"
            stroke="url(#paint1_linear)" stroke-miterlimit="10" />
        <path
            d="M384.242 405.782L397.795 429.242L348.288 514.942H249.401L199.877 429.242L249.401 343.547H348.288L360.718 365.066"
            stroke="url(#paint2_linear)" stroke-miterlimit="10" />
        <path
            d="M298.841 343.547L348.349 429.242L298.841 514.942H199.955L150.431 429.242L199.955 343.547H298.841Z"
            stroke="url(#paint3_linear)" stroke-miterlimit="10" />
        <path
            d="M286.182 686.339H249.401L199.877 600.638L249.401 514.942H348.288L397.795 600.638L348.288 686.339H310.181"
            stroke="url(#paint4_linear)" stroke-miterlimit="10" />
        <path
            d="M199.882 600.642L249.39 686.335L199.882 772.036H100.996L51.4722 686.335L100.996 600.642H199.882Z"
            stroke="url(#paint5_linear)" stroke-miterlimit="10" />
        <path
            d="M199.882 429.245L249.39 514.938L199.882 600.64H100.996L51.4722 514.938L100.996 429.245H199.882Z"
            stroke="url(#paint6_linear)" stroke-miterlimit="10" />
        <path
            d="M-2.16064 686.587L47.3472 772.282L-2.16064 857.983H-101.047L-150.571 772.282L-101.047 686.587H-2.16064Z"
            stroke="url(#paint7_linear)" stroke-miterlimit="10" />
        <path
            d="M146.413 601.208L195.92 686.903L146.413 772.605H47.5261L-1.99805 686.903L47.5261 601.208H146.413Z"
            stroke="url(#paint8_linear)" stroke-miterlimit="10" />
        <path d="M50.8689 1L100.376 86.695L50.8689 172.396H-48.0181L-97.542 86.695L-48.0181 1H50.8689Z"
            stroke="url(#paint9_linear)" stroke-miterlimit="10" />
        <path d="M-101.047 1H-2.16089L47.3469 86.695L-2.16089 172.396H-101.047"
            stroke="url(#paint10_linear)" stroke-miterlimit="10" />
        <path d="M100.375 429.808L50.866 515.511H-48.021L-97.542 429.808L-48.021 344.115H50.866"
            stroke="url(#paint11_linear)" stroke-miterlimit="10" />
        <path
            d="M-2.30981 515.511L47.1982 601.204L-2.30981 686.905H-101.198L-150.716 601.204L-101.198 515.511H-2.30981Z"
            stroke="url(#paint12_linear)" stroke-miterlimit="10" />
        <path
            d="M50.866 172.717L100.375 258.413L50.866 344.113H-48.021L-97.542 258.413L-48.021 172.717H50.866Z"
            stroke="url(#paint13_linear)" stroke-miterlimit="10" />
        <path
            d="M-48.093 857.983L1.41602 943.679L-48.093 1029.38H-146.978L-196.5 943.679L-146.978 857.983H-48.093Z"
            stroke="url(#paint14_linear)" stroke-miterlimit="10" />
        <path
            d="M-48.093 515.509L1.41602 601.204L-48.093 686.905H-146.978L-196.5 601.204L-146.978 515.509H-48.093Z"
            stroke="url(#paint15_linear)" stroke-miterlimit="10" />
    </g>
    <defs>
        <linearGradient id="paint0_linear" x1="-197.077" y1="772.34" x2="1.99362" y2="772.34"
            gradientUnits="userSpaceOnUse">
            <stop stop-color="#17E2CF" />
            <stop offset="1" stop-color="#5181FD" />
        </linearGradient>
        <linearGradient id="paint1_linear" x1="50.3003" y1="344.114" x2="249.372" y2="344.114"
            gradientUnits="userSpaceOnUse">
            <stop stop-color="#17E2CF" />
            <stop offset="1" stop-color="#5181FD" />
        </linearGradient>
        <linearGradient id="paint2_linear" x1="199.3" y1="429.245" x2="398.372" y2="429.245"
            gradientUnits="userSpaceOnUse">
            <stop stop-color="#17E2CF" />
            <stop offset="1" stop-color="#5181FD" />
        </linearGradient>
        <linearGradient id="paint3_linear" x1="149.854" y1="429.245" x2="348.927" y2="429.245"
            gradientUnits="userSpaceOnUse">
            <stop stop-color="#17E2CF" />
            <stop offset="1" stop-color="#5181FD" />
        </linearGradient>
        <linearGradient id="paint4_linear" x1="199.3" y1="600.64" x2="398.372" y2="600.64"
            gradientUnits="userSpaceOnUse">
            <stop stop-color="#17E2CF" />
            <stop offset="1" stop-color="#5181FD" />
        </linearGradient>
        <linearGradient id="paint5_linear" x1="50.8952" y1="686.339" x2="249.967" y2="686.339"
            gradientUnits="userSpaceOnUse">
            <stop stop-color="#17E2CF" />
            <stop offset="1" stop-color="#5181FD" />
        </linearGradient>
        <linearGradient id="paint6_linear" x1="50.8952" y1="514.942" x2="249.967" y2="514.942"
            gradientUnits="userSpaceOnUse">
            <stop stop-color="#17E2CF" />
            <stop offset="1" stop-color="#5181FD" />
        </linearGradient>
        <linearGradient id="paint7_linear" x1="-151.148" y1="772.285" x2="47.9245" y2="772.285"
            gradientUnits="userSpaceOnUse">
            <stop stop-color="#17E2CF" />
            <stop offset="1" stop-color="#5181FD" />
        </linearGradient>
        <linearGradient id="paint8_linear" x1="-2.57475" y1="686.906" x2="196.497" y2="686.906"
            gradientUnits="userSpaceOnUse">
            <stop stop-color="#17E2CF" />
            <stop offset="1" stop-color="#5181FD" />
        </linearGradient>
        <linearGradient id="paint9_linear" x1="-98.1187" y1="86.6983" x2="100.954" y2="86.6983"
            gradientUnits="userSpaceOnUse">
            <stop stop-color="#17E2CF" />
            <stop offset="1" stop-color="#5181FD" />
        </linearGradient>
        <linearGradient id="paint10_linear" x1="-101.047" y1="86.6983" x2="47.9242" y2="86.6983"
            gradientUnits="userSpaceOnUse">
            <stop stop-color="#17E2CF" />
            <stop offset="1" stop-color="#5181FD" />
        </linearGradient>
        <linearGradient id="paint11_linear" x1="-98.1187" y1="429.812" x2="100.808" y2="429.812"
            gradientUnits="userSpaceOnUse">
            <stop stop-color="#17E2CF" />
            <stop offset="1" stop-color="#5181FD" />
        </linearGradient>
        <linearGradient id="paint12_linear" x1="-151.293" y1="601.208" x2="47.7751" y2="601.208"
            gradientUnits="userSpaceOnUse">
            <stop stop-color="#17E2CF" />
            <stop offset="1" stop-color="#5181FD" />
        </linearGradient>
        <linearGradient id="paint13_linear" x1="-98.1187" y1="258.415" x2="100.953" y2="258.415"
            gradientUnits="userSpaceOnUse">
            <stop stop-color="#17E2CF" />
            <stop offset="1" stop-color="#5181FD" />
        </linearGradient>
        <linearGradient id="paint14_linear" x1="-197.077" y1="943.681" x2="1.99362" y2="943.681"
            gradientUnits="userSpaceOnUse">
            <stop stop-color="#17E2CF" />
            <stop offset="1" stop-color="#5181FD" />
        </linearGradient>
        <linearGradient id="paint15_linear" x1="-197.077" y1="601.207" x2="1.99362" y2="601.207"
            gradientUnits="userSpaceOnUse">
            <stop stop-color="#17E2CF" />
            <stop offset="1" stop-color="#5181FD" />
        </linearGradient>
    </defs>
</svg>